<svg xmlns="http://www.w3.org/2000/svg" viewBox="0 0 1100.54 1074.22"><title>Recurso 5</title><g id="Capa_2" data-name="Capa 2"><g id="Capa_1-2" data-name="Capa 1"><path d="M60,814.72c1,3-1.79,14.39-4,19-.65,1.37-1.39,2.66-1.39,2.66-1.92,3.16-4,5-10.61,15.34a69.23,69.23,0,0,0-7,17,8.92,8.92,0,0,0,0,6c.89,2,2.15,1.95,3,4,.75,1.8.2,2.88,0,7-.1,2.14-.05,3.88,0,5a9.64,9.64,0,0,0-1,5s.11,1.26,2,6a12.24,12.24,0,0,0,4,4c1,.61,2.2,1.12,8,2,3.67.56,5.5.84,8,1,4.7.3,6-.12,9,0,6.2.26,5.83,2.47,12,3,.15,0,0,0,10,0h5c4.88,0,5.89-.16,8,0a27.71,27.71,0,0,1,5,1h12q-.5,7.5-1,15a23.46,23.46,0,0,0-12-1c-4,.78-4.79.19-8,0-4.26-.24-4.84-.83-10-2-2.9-.65-3.43,0-9,0a85.59,85.59,0,0,1-12-1,78.4,78.4,0,0,1-15-4c-6-2.23-8.79-4.08-14-4-3.63.06-5.17,1-6,2-1.17,1.42-.81,2.82-1,6-.09,1.66-.43,7.38-3,12-1.92,3.46-3.14,2.79-5,6-.55,1-2,3.71-2,12,0,7.59,2.21,15.61,3,19,1.85,7.86,2,6.22,3,11,2,9.89-1,16-3,22-.73,2.2,3.72-8.35,3.08-22.5-.37-8.16-6.6-18.16-7.49-29.34-.64-8,2.05-16.56,3.48-25.5C27.93,916.92,29,904.87,32,892.72c2.47-9.82,2.19-18.91,6-27.41,6-13.59,12-20.59,18.79-32.82C63,821.16,59.41,812.86,60,814.72Z" style="stroke:#000;stroke-miterlimit:10"/><path d="M20,893.72l-1,4-9-6,11-1-1,3,86,14h0c.72-.39,2.24-.41,4-1,3-1,4.64-1.43,5-1,1,0,3,4,4,4,.34-1.66.67-3.33,1-5a23.55,23.55,0,0,1,9,0c4.92,1,7.76,3.34,10,2,1.33-.79,1.82-2.5,2-4v-1l.9-3.78,1.1-2.22v-3l1-1,1-1,1-1c1-1,1-1,1-1,.64-.87,0-1.87,0-3,0-1.59,1.41-1.71,4-5,1.34-1.69,1.46-2.28,3-4,.8-.88,1.51-1.55,2-2a25.2,25.2,0,0,1,3-1c2.26-.59,7-1.84,12,0a14,14,0,0,1,6,4c4,4.65,3.19,10.55,3,12a17.68,17.68,0,0,1-9,13,4.9,4.9,0,0,0,1,1c1.57,1.18,3.42,1.08,5,1,7.75-.37,8.33-.25,9,0,1.67.64,1.77,1.29,4,2,1.31.42,1.95.42,4,1a20.17,20.17,0,0,1,3,1c2.43,1.15,5.26,4,5,7-.08,1-.72,2-2,4a32.35,32.35,0,0,1-3,4c-5.88,6.89-5.61,6.76-6,7-4,2.54-7,.47-9,3-.83,1.07-.27,1.39-1,6-1,6.2-2.55,9.2-3,10-.89,1.62-1,1.26-2,3-2.32,3.93-2.1,6-4,12-.15.5-.08.24-3,8l-3,8c.34,1,.67,2,1,3,0,.67-.05,1.72,0,3,.17,3.75.87,5.3,0,7a4.77,4.77,0,0,1-2,2q2,14.5,4,29l2,1c.27,1.16.64,2.89,1,5,.57,3.24.65,4.65,1,7,.51,3.32.89,4.13,2,9,0,0,1,4.46,2,10,.66,3.71,1.44,8.79,2,15H140l-11-6a9.64,9.64,0,0,0-1,3,9.88,9.88,0,0,0,0,3H114a48.71,48.71,0,0,1,2-19,34.89,34.89,0,0,1,1-4c1-3.12,1.72-3.77,2-4a5,5,0,0,1,3-1,36.88,36.88,0,0,0,6,2,52.2,52.2,0,0,0,7,1c6.2.67,6.79.39,7,0,.51-.9-.94-2.46-3-5-5.19-6.4-3.55-5.8-8-11a83.21,83.21,0,0,0-9-9,97.05,97.05,0,0,1-20,0c-3.67-.41-7-1-7-1-5.29-.92-6.72-1.56-10-2a39.39,39.39,0,0,0-10,0,15.29,15.29,0,0,1-3,6c-1,1.27-2.12,2.07-3,4-.64,1.41-.47,1.86-1,3a9.36,9.36,0,0,1-4,4c-2.2,1.39-1.7,1.73-8,8-2.87,2.87-7.3,7.11-14,13v15H1.83a1.32,1.32,0,0,1-.78-2.39c1.13-.83,2.47-1.72,4-2.61,3.86-2.25,4.56-1.91,8-4,4.9-3,3.91-3.9,9-7,2.72-1.64,4.25-2.14,5-4s-.07-3.42,1-5a5.61,5.61,0,0,1,4-2l18-37h2a30.89,30.89,0,0,0,5-10c.55-1.9-.1-3.57,1-5,1.53-2,4.63-2.15,7-2a130.8,130.8,0,0,0,13-3c5-1.41,8.75-2.79,12-4,4.06-1.5,7.46-2.9,10-4l3-3,15-4,3-43q.51-9,1-18H112a12.47,12.47,0,0,1-3-1c-1.33-.63-2.32-2.39-3-3" style="stroke:#000;stroke-miterlimit:10"/><path d="M30,901.72a3.74,3.74,0,0,0-2,1,4.1,4.1,0,0,0-1,3c0,1.49-.31,2.57,0,3,0,1,1,3,1,4" style="stroke:#000;stroke-miterlimit:10"/><path d="M401,930.72c-.4-1.94-1-4.57-2-8-1.22-4-1.79-4.77-4-11-.56-1.59-1.7-4.79-3-9-1.44-4.65-1.54-5.56-3-10-1.12-3.42-1.28-3.56-2-6-.8-2.7-1.08-4.15-2-8-1.12-4.71-1.77-6.62-2-8a54.29,54.29,0,0,1,0-18,23.72,23.72,0,0,0-1-7,25.43,25.43,0,0,0-5-9c-1.66-2.06-2.5-3.08-4-4s-2.23-1-3-2c-.91-1.25-.6-2.3-1-4-.3-1.29-1-2.16-3-5-2.71-3.85-3.77-3.9-6-7-1.1-1.53-.93-1.64-5-10-1.75-3.59-2.62-5.39-3-6-2-3.21-4.44-7.16-9-9-2.49-1-4.68-1-8-1a24.73,24.73,0,0,0-7,1,9.23,9.23,0,0,0-4,2,8.56,8.56,0,0,0-2,3,10.56,10.56,0,0,0-1,5c.1,1.55.54,2.32,0,3s-1.23.23-2,1a3.42,3.42,0,0,0-1,3c.2.92.76.9,1,2a10.57,10.57,0,0,1,0,2c0,.67,0,1.34,0,2,.21,1,.54,2.45.75,3.42a3.4,3.4,0,0,1,.25.57,9.27,9.27,0,0,1,0,2c0,.67,0,1.33,0,2v2c0,1,.06,2,0,3-.08,1.35-.24,1.59,0,2,.13.21.38.52,2,1,2,.6,2.65.44,3,1,.22.35,0,.51,0,2s.17,1.69,0,2c-.54.95-2.87.18-6,0a20.3,20.3,0,0,0-8,1,15.26,15.26,0,0,0-5,3,16.68,16.68,0,0,0-5,11,17.31,17.31,0,0,0,0,3,45.22,45.22,0,0,1,1,7,46.07,46.07,0,0,1,0,6q-1.51,2.82-3,6c-1.13,2.42-2.12,4.76-3,7a74.59,74.59,0,0,0-11,14c-6.1,10.15-7,12-7,12a22.66,22.66,0,0,1-3,5c-2,2.43-3.28,2.85-5,5a16.58,16.58,0,0,0-3,6l-20-13,5.53-10-1.51-6c-4-2.49-9-4.1-13.11-6.47a1.7,1.7,0,0,0-1.78,0c-2.52,1.63-4.4,2.61-7.06,4.38-3.76,7-8.3,15.47-12.07,22.49v6.56l10.91,8.52,6.09-1.52a22.35,22.35,0,0,0,10-12l21,13c1.51,3.94,3,4.89,4,5,.7.07,1.08-.24,2,0,1.45.38,1.7,1.46,3,2a4.71,4.71,0,0,0,3.72-.26l8.29,5.42q.42,7.3,1,14.84.47,6.07,1,12a39.39,39.39,0,0,1,2,19,17.75,17.75,0,0,0-3,10,67.78,67.78,0,0,1,0,10c-.84,11.35-4.4,20-9,31-1.32,3.16-3.31,7.66-6,13h9c-.76,2.3-4.44,12.65-14,16a18.4,18.4,0,0,1-5,1,6.66,6.66,0,0,0-4,1,7,7,0,0,0-3,5h41v-11a13.49,13.49,0,0,1,0-3c.18-1.48.3-2.43,1-3,1.25-1,3.75-.38,5,1a3.82,3.82,0,0,1,1,2c.15,1.07-.33,1.62,0,2,.56.65,2.29-.62,3,0s-.81,3,0,4,3.11.26,4,0c0,0,2.52-.73,12-3,3.14-.75,2.12.18,12,0,2.26,0,6.51-.36,15-1a30.6,30.6,0,0,0,7-1c1.05-.31,3.31-1,6-2,3-1.07,3.52-1.33,4-1,1.3.89.24,4.65-1,9-.72,2.55-1.47,4.61-2,6h22l-3-6v-14a12.47,12.47,0,0,0,3-1,12.8,12.8,0,0,0,3-2q-2-60-4-120c-.82-6.56-.44-7.89,0-8s1.23,1.32,4,6c1.27,2.15,2.32,3.89,3,5a54.2,54.2,0,0,0-1,7,53.2,53.2,0,0,0,0,8c.4,1.91,1.29,3.06,2,3,.11,0,.56-.08,1-1,.69-4.89,1.43-6,2-6,.79-.05,1.57,1.91,2,3a14.26,14.26,0,0,1,1,5,4.61,4.61,0,0,0-2,3c0,.31,0,.42,0,3v1c0,2.31-.19,2.93,0,3,.41.15,2.21-2.5,3-4a1.9,1.9,0,0,1,1-1,1.69,1.69,0,0,1,1,0c.33,1.33.67,2.67,1,4h1v-12A74.57,74.57,0,0,0,401,930.72Zm-100-23a27,27,0,0,1-1,6c-1.15,4.62-1.8,4.47-2,7s.46,3.14,0,6c-.22,1.37-.37,1.19-1,4-.49,2.19-.43,2.4-1,5-.18.83-.51,2.24-1,4a22.32,22.32,0,0,1-1,3c-.61,1.4-1.33,3-2,3s-1.29-1.26-2-6a7.19,7.19,0,0,0,0-4,7.62,7.62,0,0,0-3-4c-1.41-1-2-.65-4-2-1.1-.74-1.73-1.18-2-2-.41-1.23.46-1.87,0-3s-1.65-1-2-2c-.53-1.54,1.56-3.57,2-4,1.08-1.05,1.54-1,3-2,2.08-1.47,2.25-2.41,4-4,2-1.81,2.9-1.6,5-3,4.94-3.31,5.69-8.35,7-8S301.08,906.47,301,907.72Z" style="stroke:#000;stroke-miterlimit:10"/><path d="M493,751.72c7.09.17,11.34,6,12,7a17.87,17.87,0,0,1,3,12c-.34,2.68-1.27,3.88-1,7a8.47,8.47,0,0,1-1,5c-.75,1.57-1,1.75-1,3s1.37,2.5,2,3,1.29,1,2,1c1.19-.06,1.83-1.42,3-3,1.92-2.56,2.66-2.09,4-4,.7-1,.59-1.2,2-5s2.1-5.63,3-7c1.16-1.74,1.7-1.9,3-4a20.75,20.75,0,0,0,2-4c1.3-3.8-.62-4.84,0-9,.59-3.89,2.48-4.4,3-9a18.07,18.07,0,0,0,0-4c-3.26-.46-25.8-4-39-25-1.07-1.71-15.28-25.16-4-50,9.83-21.62,34.38-34.19,58-30,19.48,3.46,36.56,18,42,38,7,25.83-9.37,46.06-11,48a55,55,0,0,1-26,17,73.93,73.93,0,0,0,0,10c.25,3.62.86,4.85,1,8a38.73,38.73,0,0,1-1,10c-1.73,9-3.39,8.8-4,15,0,.41,0,3.95,0,11,0,7.3,0,7.45,0,8a32.88,32.88,0,0,1-5,15,83.86,83.86,0,0,1-16,51v9h1.47L531.81,891,528,894.72c.45,1.16,1.14,2.9,2,5,5.23,12.74,9,19.48,12,26a122.66,122.66,0,0,1,8,24c1.46,6.73,2.4,11.64,3,15a24.14,24.14,0,0,0,1,4c1.71,4.8,6,9,6,9,2.34,2.29,5.46,6.7,9,16a14.59,14.59,0,0,0-1,4c-.24,2.53.3,4.19,1,7,1.66,6.69.71,5.92,2,10s2.34,5.24,2,8c-.21,1.76-.74,2-1,4a14.91,14.91,0,0,0,1,7c1.73,5.37.17,10,0,13-.28,4.88,2.78,12.61,18,25H558a87.25,87.25,0,0,0,0-12c-.17-2.5-1.38-18.41-8-32-1.51-3.11-2.79-5-4-9-1.34-4.41-1-6.27-3-9s-3.51-2.61-5-5c-2-3.18,1-5.9-1-9-.74-1.13-1.52-1.49-2-3a7.86,7.86,0,0,1,0-4c.35-2.08-.1-4.05-1-8-.81-3.56-2.32-5.42-6-11-5.77-8.75-4.53-7.94-10-16-4.55-6.7-4.94-6.58-7-10a61.48,61.48,0,0,1-7-17h-9c-2,8.37-4.66,17.43-8,27-3.18,9.13-6.58,17.47-10,25-.5,6.43-.81,11.56-1,15-.35,6.48-.48,10.85-3,12a4.08,4.08,0,0,1-3,0,113.85,113.85,0,0,1-12,36,26.37,26.37,0,0,0-2,5,34.05,34.05,0,0,0-1,8c-.12,2.84,0,4.29,0,8,0,2.12.05,5.21,0,9H429c3-3.65,9.1-11.81,11-21a66.11,66.11,0,0,0,1-7c.34-4,.11-6.13,0-12-.09-5.22-.14-7.83,0-10,.46-6.91.69-10.37,2-14,.78-2.16,1.94-4.54,1-7-.48-1.25-1.28-1.94-1-3,.35-1.29,1.84-1.32,3-3a7.29,7.29,0,0,0,1-3c.7-3,1.6-3.55,3-7,1-2.39.7-2.53,2-7,1.59-5.44,2.21-6,3-9a35.83,35.83,0,0,0,1-11c-.26-11.41,2-26.71,3-32,1.43-7.18,5-17.4,15-29-.62-5.24-3-9.26-6-10a6.81,6.81,0,0,0-3,0c-2,.52-2.83,1.92-4,3s-3.52,1.81-8,3c-5.59,1.5-8.39,2.25-10,2-.62-.09-6.17-1-9-6-.2-.35-2.79-5.05-1-9a16.05,16.05,0,0,1,2-3,11.1,11.1,0,0,1,3-3c2.72-1.48,6.22.16,8,1a15.92,15.92,0,0,1,6,5,25.48,25.48,0,0,0,6-4,30.6,30.6,0,0,0,5-6,114.7,114.7,0,0,1,8-10,31.74,31.74,0,0,1-3-7,32.19,32.19,0,0,1-1-13,20.48,20.48,0,0,1-4-11c-.31-6.4,2.56-13.27,8-17a16.88,16.88,0,0,1,4-2,76.27,76.27,0,0,1,5-6c1.61-1.73,3.19-3.27,4.71-4.64l-1.83-6.38-5.15-.86a.8.8,0,0,1-.67-.85,36.11,36.11,0,0,0-.06-5.27c-.43-5.15-1.65-6-1-9,.52-2.37,1.63-3.38,1-5s-1-1.73-1-3a3.74,3.74,0,0,1,1-3,12.71,12.71,0,0,0,2-5C480.22,756.84,486.16,751.56,493,751.72Z" style="stroke:#000;stroke-miterlimit:10"/><path d="M666.78,885.72c.05-3.91-.84-5.38-1-7-.21-2.13-1.4-2.86-1.75-4-.49-.66-.21-1.69-1-3-.66-1.09-.82-4.78-3-12-.23-.78-.82-3.18-2-8-1.42-5.81-2-8.41-2-11v-7c.09-1.71.26-2.12,0-3-.11-.36-2.4-.91-3-2a8.53,8.53,0,0,1-1-2c-.14-.53,1.57-1.58,2-2,1-.93,3,1,3,1a8.58,8.58,0,0,1,1,1c0,.17,1.86,1,4,1a8.65,8.65,0,0,0,4-1,8,8,0,0,0-1-2,9,9,0,0,0-2-2,23.52,23.52,0,0,1-3-3c-2-2-1.17-1.36-3-5-1.27-2.52-1.62-2.25-3-5a27.89,27.89,0,0,1-2-5,25.71,25.71,0,0,1-1-7,16.1,16.1,0,0,0-7-9,13.69,13.69,0,0,0-8-2,14.54,14.54,0,0,0-6,2,15.44,15.44,0,0,0-5,4,47.37,47.37,0,0,0-3,6c-1.72,3.71-1.89,4.2-2,5a21.34,21.34,0,0,0,0,5,6.09,6.09,0,0,1,0,3c-.31.95-.7,1-1,2a6.09,6.09,0,0,0,0,3,10.39,10.39,0,0,0,1,3c-.91,2.31-1.08,3-1,3s.33-.64,1-1a2.12,2.12,0,0,1,2,0c1.31.9.89,4.66-1,7a6.66,6.66,0,0,1-1,1h-9v10c-.48,0-1.17,0-2,0a22.51,22.51,0,0,0-12,4c-3.07,2.37-4.09,6.28-6,14-2.48,10-1.21,12.29-4,20,0,0,0,0-.38,1l-2.62,7s-2,5.25-3,8c-2.26,6.17-2.73,8.37-4,12a84.46,84.46,0,0,1-7,15v4h-3v-2l-3-1q-7,18.49-14,37l2,1,5-11,1,1q2.51-5,5-10h4l1-1v-4h7l2,3v-5h4v-8h-4v-3h2a233,233,0,0,0,13-26c.87-2.06,5.13-12.23,7-20,1.2-5,1.79-7.46,2-9a40.21,40.21,0,0,1,1-5c.49-2,.73-3,1-3,.59-.05,1.7,3.26,4,18l4,9v11a18.72,18.72,0,0,0-4,9h-2v11l1,1-3,11h-4q-2,12-4,24a6.1,6.1,0,0,1,3,2c1,1.32,1.73,3.59-1,13-.67,2.29-1.64,5.38-3,9a40.83,40.83,0,0,1-1,6c-.82,3.34-1.67,5-3,9-.52,1.56-1.26,4-2,7,.29,5.53-.83,7.39-2,8-.62.33-1.31.32-2,1-1.22,1.2-1,3.19-1,4a46.46,46.46,0,0,1-1,11c-.41,3-.76,5.38-1,7-.73,4.86-1,5.84-1,8a43.89,43.89,0,0,1,0,5c-.27,2.8-.78,3.21-1,6-.18,2.25.13,2.23,0,5s-.21,4.41-1,6c-1,2.08-2.64,2.22-4,4a21.61,21.61,0,0,0-4,9h18a117.53,117.53,0,0,1,4-28c.94-2.93,1.58-5.33,2-7s.58-2.49,1-4a59.8,59.8,0,0,1,2-6,8.09,8.09,0,0,0,3-5,7,7,0,0,0,0-2q2-5.51,4-11l-2-1,3-11a54.78,54.78,0,0,1,3-12l2-5,2-5c2.64-6.78,2-6.43,3-8,2.1-3.33,3.7-3,5-6,1-2.29.24-2.89,1-6,.69-2.83,1.49-3.09,4-8,1.84-3.61,3.14-6.85,4-9,2.22-5.54,2.33-7,3-7,1.7,0,3.16,9.17,5,21,.73,4.71,1.39,9,2,15a137.22,137.22,0,0,1,1,21c-.19,4.59-.63,8.38-1,11a5.8,5.8,0,0,1,0,2c-.25,1.34-.91,2-2,4-.44.81-.77,1.5-1,2,0,2.55,0,5.58,0,9,0,2.33,0,2.41,0,3,.33,3.93,1.75,5.11,2,9,.06,1,0,1.82,0,3-.09,3-.37,3.73,0,5,.45,1.56,1.2,1.5,2,3,1.3,2.42-.44,3.79,0,10a20.85,20.85,0,0,1,0,5c-.34,2.41-.93,3-1,5s.54,3,1,5a18.61,18.61,0,0,1,0,8h28l-15-16,3-53h-3v-9c5.71-29.66,6.53-44.22,6-52-.59-8.65,1.53-17.71-1-26-.23-.76,0-2.78,0-5,0-2,0,0,1-3,.63-1.89-.82-3.23,1-5a11.35,11.35,0,0,0,3-5c.19-.32,3.52-3.38,3.75-7,.11-1.68,0,.58,0-2C666.73,886.66,666.76,887.1,666.78,885.72Zm-9.25,9.5c-2.89,3.06-4.27,3.32-5,3-1.41-.61-.77-3.52-3-6a7.66,7.66,0,0,0-3-2,2.5,2.5,0,0,1,0-4,66.86,66.86,0,0,1-5-8c-.89-1.69-1.79-3.58-1-5,.08-.14.27-1.46,1-2,2.19-1.62,1.67-1.09,3-2,1.63-1.11,2.78-2.53,3-6s.61-5.9,1-6,1.33,2.27,2,4c3.24,8.33,4.87,12.5,5,13a64.16,64.16,0,0,1,2,21Z" style="stroke:#000;stroke-miterlimit:10"/><circle cx="413.03" cy="254.72" r="44" style="fill:#fff"/><circle cx="415.03" cy="253.72" r="59" style="fill:none;stroke:#fff;stroke-miterlimit:10;stroke-width:5px"/><circle cx="407.3" cy="118.09" r="20.23" style="fill:#fff"/><circle cx="408.53" cy="118.22" r="28.5" style="fill:none;stroke:#fff;stroke-miterlimit:10;stroke-width:3px"/><polygon points="419.59 298.24 937.53 1074.22 949.53 1074.22 428.53 294.22 419.59 298.24" style="fill:#fff"/><polygon points="411.59 136.24 1030.53 1074.22 1044.53 1074.22 422.53 130.22 411.59 136.24" style="fill:#fff"/><polygon points="434.59 289.24 954.53 1074.22 984.53 1074.22 453.53 270.22 434.59 289.24" style="fill:#fff"/><path d="M363,5.72a17.67,17.67,0,0,1,3,4,17.42,17.42,0,0,1,2,8c.1,2.87.22,6.17-2,9-1.62,2.08-4,2.09-4,3s2.27,1.53,5,2c1,.44,2.36,1.11,4,2,3.74,2,7.6,4.15,11,8a27.1,27.1,0,0,1,4,6l15,20-10-10v6c-4.2-4.63-5.55-5.29-6-5-.66.45.61,3.13,2,8a76.2,76.2,0,0,1,2,9,16.75,16.75,0,0,1,5,4c.75.9,2.3,3,4,10,1.29,5.35,2.88,10.62,4,16a3.84,3.84,0,0,0,1,2,4.79,4.79,0,0,0,2,1c1.17.41,1.76.61,3,1a14.78,14.78,0,0,1,4,2,29.77,29.77,0,0,1,4,5,21.74,21.74,0,0,0,2,3c1,1.21.87,1.47,2,3a4.39,4.39,0,0,1,1,2l.71,1.41a.73.73,0,0,1-.16.88,1.7,1.7,0,0,0-.55.71c-.32.85.32,1.58,0,2-.18.25-.67.39-2,0l-10-11a3.69,3.69,0,0,0-3,0,3.62,3.62,0,0,0-2,3q3.56,5.57,3,6t-6-5a7.81,7.81,0,0,1-3-2,8,8,0,0,1-2-4,74.5,74.5,0,0,1-18-27,3.2,3.2,0,0,0-1-2c-.38-.33-.81-.49-1-1a2.08,2.08,0,0,1,0-1,8.92,8.92,0,0,0,0-2c-.09-.56-.25-.6-1-2s-.59-1.36-1-2c-.5-.8-1.31-2.08-2-2s-.95,1.68-2,6c-1,4-1.36,5-2,6a10.43,10.43,0,0,1-3,3v11a22.92,22.92,0,0,1,8,8,22.63,22.63,0,0,1,3,9,262.23,262.23,0,0,1,11,27c2.93,8.5,5.21,16.55,7,24a38.9,38.9,0,0,1,13,5,40.57,40.57,0,0,1,16,19c-6.77-4.07-8.62-4.47-9-4-.55.7,2.56,2.89,4,8a32.89,32.89,0,0,1,1,7c.09,2.14-.12,1.81,0,3,.34,3.3,1.92,5.76,4,9,1.1,1.71,1.65,2.56,2,3,1.13,1.39,1.85,1.87,2,3,.11.8-.18,1.08,0,2a5.33,5.33,0,0,0,1,2c1.06,1.35,4,2.63,8,3q-.5,4-1,8h-3a14.18,14.18,0,0,1,0,3,14.58,14.58,0,0,1-7,11l-8,1q-.5,3.51-1,7l-15,16c-2.4,1.34-5.11.55-6-1-1-1.73,0-4.91,3-6a6,6,0,0,0,1-2c.69-2.34-.54-3.42,0-6,.34-1.58.88-1.57,1-3a7.59,7.59,0,0,0-1-4,53.76,53.76,0,0,1-2-7c-.7-2.77-.8-5.18-1-10s.78-5.84,0-9c-.52-2.12-.95-2-2-5-1.49-4.25-1-5.72-2-9-.65-2.25-2.11-4.53-5-9-3-4.69-5.67-8.26-7-10-4.77-6.27-5.56-6.41-8-10a52,52,0,0,1-6-12,109.09,109.09,0,0,1-31-48,226.78,226.78,0,0,1-7-23c-1.75-7.08-3-13.78-4-20a32.77,32.77,0,0,1-3-24q.51-5,1-10a7,7,0,0,0,2,0,8.09,8.09,0,0,0,5-3l10-9a45.83,45.83,0,0,1-3-6,47.27,47.27,0,0,1-2-6l-5.65-3.39-.35-.61v-3c1.77-1.7,3.15-3.1,4-4,3.2-3.33,5.45-6.24,8.46-8.93,1.05-.93,1.86-1.55,2.54-2.07a17,17,0,0,1,3-2,12.71,12.71,0,0,1,3-1,14,14,0,0,1,8,1A18,18,0,0,1,363,5.72Z" style="stroke:#000;stroke-miterlimit:10"/><path d="M342,8.72c.88,1,1.17,1.65,2,2,.66.28,1.68.43,2,0s.13-1.34-2-4l-3-1c-.33.34-.66.67-1,1A17.57,17.57,0,0,1,342,8.72Z" style="fill:#fff;stroke:#000;stroke-miterlimit:10"/><path d="M803,649.72a3.77,3.77,0,0,1,3,0,4,4,0,0,0,3,1c1-.1,1-.91,3-2h0a10.52,10.52,0,0,1,2-1c.74-.16.93.81,2,1s1.35-.66,3-1c1.16-.23,1.09.17,3,0,0,0,2.22-.19,3-1a4.21,4.21,0,0,0,.62-.82s0-.08,0-.09h0s.17-1,.34-1.09.75,1.6,2,2a12,12,0,0,0,2,0l3-1c-.12,1.33.21,2.59,1,3,0,0,1.16.61,3.83-1.09a.6.6,0,0,0,.13-.08l0,0s1-.7,1-.8-1.93.31-2,1,2.1,1.92,4,2h2c-.59,1.73-.38,2.57,0,3a8,8,0,0,0,2,1c1.73-.93,3.38-.82,4,0a1.64,1.64,0,0,1,0,2c-.61.52-1.83-.27-2,0,0,0-.17.3,3,3,.66.87,1.7,2.26,3,4,1.57,2.09,1.77,2.38,2,3,.54,1.43.33,2.24,1,4a11.42,11.42,0,0,0,1,2c.82-.24,9-2.68,15-5,1.54-.59,3.92-1.51,7-3,.21-.09,1.5-.72,2-1,1.44-.79,4.47-3.2,6-12,5.68-4.18,9-5.56,11-6a12.58,12.58,0,0,0,3-1,11.17,11.17,0,0,0,4-3c1.4-1.74,1.18-3,2-5s2.26-3.46,5-6a50.51,50.51,0,0,1,11-8c6.66-3.56,7.9-2.35,10-5s1.58-5,5-9c2-2.36,3.3-2.82,4-3,1.7-.41,2.36.31,5,0a38.86,38.86,0,0,0,4-1c2.2-.51,2.64-.48,5-1,2-.44,3.34-.82,4-1,1.18-.31,3.4-.79,11-1,3.67-.09,7.34,0,11,0,6.89,0,7.77-.17,11,0,2,.11,4.38.38,9,1,7.4,1,7.5,1.24,9,1,3.19-.5,2.88-1.58,8-3,3.71-1,4.74-.7,6-2,1.49-1.53,1-3,3-5a7.58,7.58,0,0,1,3-2c2.12-.69,3,.29,6,0a13.88,13.88,0,0,0,4-1,20.57,20.57,0,0,0,5-3c3-2.21,2.67-2.33,5-4,3.4-2.42,4-2.05,6-4a25.75,25.75,0,0,1,3-3,13.3,13.3,0,0,1,4-2,26.54,26.54,0,0,1,3-1c.43-.05.33,0,3,0h3a50.25,50.25,0,0,1,5,1c0,.07-1-.1-1,0a8.1,8.1,0,0,0,4,1c.67,0,2.67,0,2,0h7a5.91,5.91,0,0,0,1,3c.92,1.3,1.88,1.36,3,3a9.83,9.83,0,0,1,1,2,9,9,0,0,1,1,4,5.6,5.6,0,0,1-2,4c-2.12,1.6-6.06,1-9-2h-11a19,19,0,0,0-3,0,7.32,7.32,0,0,0-3,1c-1.09.7-.84,1-2,2a11.54,11.54,0,0,1-4,2,2.64,2.64,0,0,0,1,2c.69.43,1.43.14,3,0,1-.08,2,0,3,0,2.67,0,5.34.07,8,0a44,44,0,0,1,6,0,9.41,9.41,0,0,1,4,1,10.79,10.79,0,0,1,3,3c1.76,2.21,1.68,2.78,3,4,1.14,1.06,1.33.76,3,2,1.92,1.43,3.87,2.88,4,5a4.61,4.61,0,0,1-1,3,5.38,5.38,0,0,1-3,2c-3,.8-6-1.28-7-2-2.16-1.51-2.37-2.66-4-3s-2.29,1.36-4,1c-.68-.14-.7-.39-2-1a17.93,17.93,0,0,0-3-1c-3.59-.83-4.67.92-8,0-1-.26-3-1-3-1-.77.08-2.9.32-3,1s2,1.56,3,2c.67.29.78.28,3,1s1.88.66,3,1c2.17.67,2.36.59,3,1,.94.6.9,1,2,2a13.3,13.3,0,0,0,3,2c2.19,1.2,2.65,1,4,2a11,11,0,0,1,2,2c1,1.32,1,1.73,2,3a22.83,22.83,0,0,0,2,2,12.29,12.29,0,0,1,2,2c.07.1,0,0,1,2l1,2c.09.36.72,3.34-1,5-2.2,2.13-6.39.27-7,0a12.54,12.54,0,0,1-3-2,33.83,33.83,0,0,1-3-3c-1.36-1.48-1.42-1.67-2-2-1.24-.7-1.78-.26-3-1a10,10,0,0,1-2-2c-1.15-1.32-1.3-1.75-2-2s-1,0-2,0a6.47,6.47,0,0,1-3-1c-2.47-1.34-2.39-2.69-4-3a3.16,3.16,0,0,0-3,1c-1,1.4,0,3.8,1,5a19.28,19.28,0,0,0,2,2,16.84,16.84,0,0,0,2,5c.63,1,2,3,2,3v3c.23.33,2.11,3.1,1,6-.08.22-1.09,2.78-3,3-.56.07-.9-.1-4-2-2.62-1.6-2.76-1.72-3-2-.53-.63-.49-.86-2-4-.5-1.05-.76-1.58-1-2,0,0-.41-.72-2-3,0,0-3.09-2.63-5-2-1.11.38-.86,1.54-2,3-2.11,2.73-6.21,2.92-8,3a23.81,23.81,0,0,1-7-1c-2.12-.51-2.36-.75-4-1a22.15,22.15,0,0,0-6,0,50.1,50.1,0,0,0-5,1c-2,.47-3.08.71-4,1a19.52,19.52,0,0,0-6,3c-2.85,2.23-3.95,4.93-5,7a33.22,33.22,0,0,1-12,13c-7.15,4.14-12,1.15-17,6-1.93,1.87-2.72,3.92-4,7-2.85,6.86-1.24,9-3,14-1.52,4.31-6,8.21-15,16-7.28,6.32-7.75,5.76-9,8-2.47,4.47-1.68,8.63,1,24,2,11.15,2.92,16.75,3,18,.51,7.61,1.1,16.59-3,26-2.92,6.72-5.24,6.75-6,12-1.06,7.32,3.14,9.2,2,17-.71,4.9-3.15,9.5-5,13-1.94,3.69-3.36,5.39-4,9s.51,3.42,0,8-1.72,5.82-2,11c-.09,1.73,0,3.14,0,4a49.73,49.73,0,0,0,1,8c-.64,5.22.2,6.62,1,7,1.65.8,4.23-2.13,14-11,7.84-7.11,10.48-9.14,14-9,1.66.07,3.31.61,6,0a15.4,15.4,0,0,0,6-3s1.51-1.07,11-6c2.81-1.45,8.54-2.64,20-5,11.87-2.44,14.46-2.51,17-2a39.89,39.89,0,0,0,7,1c2.17.11,4.53,0,6,0,4.06-.11,4.61-.34,6,0a11,11,0,0,1,5,3,17.42,17.42,0,0,1,5,11l6,2-3,3a2.66,2.66,0,0,0-2,1c-.56,1,.23,2.28,1,4,1.23,2.73.49,2.17,2,6,2,5.06,3,5.23,4,9,.71,2.61,1,4,1,4,.62,2.95.43,3.36,1,4,1.48,1.66,4.12.49,5,2,.48.83-.14,1.46,0,3a6.78,6.78,0,0,0,2,4c-4.89-4.07-6.47-4.43-7-4s.19,2.2,1,6c.29,1.35.53,3.24,1,7,0,0,.87,6.87,1,14,.29,14.84-4.12,31.73-5,35a157.54,157.54,0,0,1-9,25q-2.49,29-5,58a51.72,51.72,0,0,0,6,7c2.91,2.84,4.6,3.82,7,6a41.89,41.89,0,0,1,8,10,94.13,94.13,0,0,0,9,7,95.25,95.25,0,0,0,10,6H980a33.19,33.19,0,0,1,0-12,33.57,33.57,0,0,1,7-15,17.14,17.14,0,0,0,1-7c-.2-3-1.07-3.56-1-6,.1-3.28,1.73-4.39,3-8,1.1-3.11,1-5.37,1-9,.1-11.63,1.63-11.78,2-28,.07-2.84.12-7,0-12a73.67,73.67,0,0,1-13-32,10.91,10.91,0,0,0-5,1,11.82,11.82,0,0,0-5,5c-3.63,6.39-20,12.77-27,15-18.45,5.94-35.2,3.58-43,2a16.39,16.39,0,0,0-9,4c-6.6,6-5.12,15.28-5,16,2.68.38,9.18,1.68,13,7,2.58,3.59,2.76,7.45,3,15,.11,3.26.1,7.9-1,18-1.57,14.51-2.65,15.21-2,21,.81,7.17,1.32,11.85,4,15a11.89,11.89,0,0,1,3,6,10.18,10.18,0,0,1,0,3H798a39.09,39.09,0,0,1-5-11c-2.21-8-1.06-14.23,1-27s4.23-16.48,4-26a66,66,0,0,0-1-10c.45-4.76,1.12-11.67,2-20,1.57-14.77,2.36-22.16,3-26,4.17-24.65,13.88-38,11-40-1.17-.79-4.4.32-14,10a101,101,0,0,1,0,22,77.26,77.26,0,0,1-4,19c-5.16,13.86-15.47,22.87-23,28q-8,19.5-16,39a29.15,29.15,0,0,0,3,18,28.56,28.56,0,0,0,9,10q.47,3.94,1,8c.32,2.37.66,4.71,1,7H671a98.25,98.25,0,0,0,12-8c2.6-2,4.93-4,7-6h5q2.51-6,5-12-.49-8-1-16,3.51-5,7-10c1.79-4.61,3.49-9.61,5-15,3.31-11.77,3-18.11,6-37,1.65-10.31,1.83-9.27,3-17a267.23,267.23,0,0,0,3-34l15-22a22.2,22.2,0,0,1-1-11c.93-5.23,3.55-7.49,4-13,.2-2.44-.21-3.52-1-8,0,0-1.5-8.6-2-16-.22-3.32-.18-13,10-27v-18a40.81,40.81,0,0,1,27-41,123.78,123.78,0,0,1,23-38c-.23-.66-.59-1.7-1-3-.79-2.54-.9-2.73-1-3a11.33,11.33,0,0,0-4-5v-7a7.25,7.25,0,0,1-6-5,7.44,7.44,0,0,1,1-6q-.49-6-1-12h-2c.34-1.33.67-2.66,1-4-1.3,1.2-2.64,2.28-3,2-.16-.13,0-.44,0-1-.08-1.33-1.41-1.66-2-3-.22-.51-.12-.68,0-3,.14-2.62.21-3.93,0-4-.72-.25-3.34,5.6-3,8a10.8,10.8,0,0,0,.58,2.14c.21.51.36.88.42.86s-1.16-3.26-1-6c.12-2,1.1-4.78,5-8a9.31,9.31,0,0,0-5,2,8.44,8.44,0,0,0-1,1,16.59,16.59,0,0,1,7-5c.92-.31,2.55-.74,3-2s-.57-2.44,0-3,1.42.34,3,0c.88-.18.78-.48,2-1,1.7-.71,2.18-.27,4-1,.93-.37.8-.48,2-1,1.91-.82,2.17-.5,3-1C801.9,652.62,801.39,650.58,803,649.72Z" style="stroke:#000;stroke-miterlimit:10"/></g></g></svg>